<?xml version="1.0" encoding="UTF-8" standalone="no"?>
<!-- Created with Inkscape (http://www.inkscape.org/) -->

<svg
   xmlns:dc="http://purl.org/dc/elements/1.1/"
   xmlns:cc="http://creativecommons.org/ns#"
   xmlns:rdf="http://www.w3.org/1999/02/22-rdf-syntax-ns#"
   xmlns:svg="http://www.w3.org/2000/svg"
   xmlns="http://www.w3.org/2000/svg"
   xmlns:sodipodi="http://sodipodi.sourceforge.net/DTD/sodipodi-0.dtd"
   xmlns:inkscape="http://www.inkscape.org/namespaces/inkscape"
   width="283.229"
   height="97.421471"
   viewBox="0 0 283.229 97.421471"
   id="svg2"
   version="1.1"
   inkscape:version="0.91 r13725"
   sodipodi:docname="brmbar.svg">
  <defs
     id="defs4">
    <inkscape:perspective
       id="perspective80"
       inkscape:persp3d-origin="200 : 31.999999 : 1"
       inkscape:vp_z="399.99999 : 47.999999 : 1"
       inkscape:vp_y="0 : 999.99998 : 0"
       inkscape:vp_x="0 : 47.999999 : 1"
       sodipodi:type="inkscape:persp3d" />
    <pattern
       y="0"
       x="0"
       height="6"
       width="6"
       patternUnits="userSpaceOnUse"
       id="WMFhbasepattern" />
  </defs>
  <sodipodi:namedview
     id="base"
     pagecolor="#ffffff"
     bordercolor="#666666"
     borderopacity="1.0"
     inkscape:pageopacity="0.0"
     inkscape:pageshadow="2"
     inkscape:zoom="1.979899"
     inkscape:cx="78.531209"
     inkscape:cy="168.1794"
     inkscape:document-units="px"
     inkscape:current-layer="layer1"
     showgrid="false"
     inkscape:window-width="1920"
     inkscape:window-height="995"
     inkscape:window-x="-8"
     inkscape:window-y="-8"
     inkscape:window-maximized="1"
     units="px"
     fit-margin-top="0"
     fit-margin-left="0"
     fit-margin-right="0"
     fit-margin-bottom="0" />
  <metadata
     id="metadata7">
    <rdf:RDF>
      <cc:Work
         rdf:about="">
        <dc:format>image/svg+xml</dc:format>
        <dc:type
           rdf:resource="http://purl.org/dc/dcmitype/StillImage" />
        <dc:title></dc:title>
      </cc:Work>
    </rdf:RDF>
  </metadata>
  <g
     inkscape:label="Vrstva 1"
     inkscape:groupmode="layer"
     id="layer1"
     transform="translate(-9.983923,-951.70333)">
    <g
       id="g3569"
       transform="translate(432.82124,387.17875)">
      <path
         id="path22"
         d="m -165.03255,597.95412 c -8.50884,0 -15.43068,6.9229 -15.43068,15.43174 0,4.12173 1.60508,7.99668 4.51954,10.91114 2.91499,2.91446 6.78941,4.51954 10.91114,4.51954 8.50884,0 15.43174,-6.92237 15.43174,-15.43068 -5.1e-4,-8.50937 -6.9229,-15.43174 -15.43174,-15.43174 m 0,33.14825 c -4.73175,0 -9.18162,-1.84281 -12.52739,-5.18912 -3.34631,-3.34631 -5.18912,-7.79511 -5.18912,-12.52739 0,-9.76929 7.94775,-17.71704 17.71651,-17.71757 9.76929,0 17.71704,7.94775 17.71704,17.71757 0,9.76876 -7.94775,17.71651 -17.71704,17.71651"
         style="fill:#217777;fill-opacity:1;fill-rule:nonzero;stroke:none;stroke-opacity:1"
         inkscape:connector-curvature="0" />
      <path
         id="path24"
         d="m -171.46032,623.77474 c 1.91674,1.18227 4.11481,1.80452 6.38841,1.80452 2.2736,0 4.47221,-0.62225 6.38894,-1.80452 -0.63075,-1.12909 -0.45365,-2.55707 0.49408,-3.5048 0.55524,-0.55523 1.29342,-0.86104 2.07841,-0.86104 0.50099,0 0.99188,0.12871 1.42479,0.36803 2.94371,-4.77216 2.23478,-11.01219 -1.7641,-15.01159 -1.60614,-1.60615 -3.60106,-2.71981 -5.79435,-3.23995 -0.35261,1.24397 -1.48754,2.12841 -2.82724,2.12841 -1.33969,0 -2.47463,-0.88444 -2.82724,-2.12841 -2.19329,0.52014 -4.18873,1.63433 -5.79435,3.24048 -3.99993,3.9994 -4.70887,10.2389 -1.76569,15.01106 0.43345,-0.23932 0.92486,-0.36803 1.42532,-0.36803 0.78552,0 1.52318,0.30581 2.07895,0.86104 0.94826,0.94773 1.12536,2.37571 0.49407,3.5048 m 6.38788,2.76608 c -2.6278,0 -5.16306,-0.77116 -7.33189,-2.22999 l -0.44142,-0.29623 0.33825,-0.40898 c 0.65149,-0.78978 0.59672,-1.93057 -0.12818,-2.65546 -0.37335,-0.37335 -0.87008,-0.57917 -1.39819,-0.57917 -0.45845,0 -0.90466,0.16008 -1.25673,0.45047 l -0.40951,0.33771 -0.29624,-0.44036 c -3.49788,-5.20029 -2.81607,-12.19605 1.6221,-16.63369 1.85611,-1.85717 4.19459,-3.10433 6.76229,-3.60744 l 0.5212,-0.10158 0.0511,0.52811 c 0.0973,1.01846 0.94348,1.78643 1.96779,1.78643 1.02432,0 1.87047,-0.76797 1.96833,-1.78643 l 0.0511,-0.52811 0.52067,0.10158 c 2.56664,0.50311 4.90565,1.75027 6.76229,3.60637 4.43764,4.43817 5.11998,11.43447 1.62157,16.63476 l -0.29624,0.44036 -0.40898,-0.33824 c -0.35314,-0.29039 -0.79881,-0.44994 -1.25779,-0.44994 -0.52811,0 -1.02431,0.20529 -1.39819,0.57864 -0.72436,0.72489 -0.77914,1.86621 -0.12818,2.65599 l 0.33772,0.40898 -0.44036,0.29623 c -2.16883,1.45883 -4.70462,2.22999 -7.33242,2.22999"
         style="fill:#217777;fill-opacity:1;fill-rule:nonzero;stroke:none;stroke-opacity:1"
         inkscape:connector-curvature="0" />
      <path
         id="path26"
         d="m -171.56669,607.09105 c -0.49939,0 -0.90571,0.40633 -0.90571,0.90625 0,0.4994 0.40632,0.90572 0.90571,0.90572 0.49887,0 0.90572,-0.40632 0.90572,-0.90572 0,-0.49992 -0.40685,-0.90625 -0.90572,-0.90625 m 0,2.77406 c -1.03069,0 -1.86887,-0.83817 -1.86887,-1.86834 0,-1.03017 0.83818,-1.86887 1.86887,-1.86887 1.03017,0 1.86834,0.8387 1.86834,1.86887 0,1.03017 -0.83817,1.86834 -1.86834,1.86834"
         style="fill:#217777;fill-opacity:1;fill-rule:nonzero;stroke:none;stroke-opacity:1"
         inkscape:connector-curvature="0" />
      <path
         id="path28"
         d="m -173.209,613.59009 c -0.49939,0 -0.90571,0.40632 -0.90571,0.90624 0,0.49993 0.40632,0.90572 0.90571,0.90572 0.4994,0 0.90625,-0.40579 0.90625,-0.90572 0,-0.49992 -0.40685,-0.90624 -0.90625,-0.90624 m 0,2.77458 c -1.03069,0 -1.86833,-0.83817 -1.86833,-1.86834 0,-1.03016 0.83764,-1.86887 1.86833,-1.86887 1.0307,0 1.86888,0.83871 1.86888,1.86887 0,1.03017 -0.83818,1.86834 -1.86888,1.86834"
         style="fill:#217777;fill-opacity:1;fill-rule:nonzero;stroke:none;stroke-opacity:1"
         inkscape:connector-curvature="0" />
      <path
         id="path30"
         d="m -156.93589,613.59009 c -0.49886,0 -0.90624,0.40632 -0.90624,0.90624 0,0.49993 0.40738,0.90572 0.90624,0.90572 0.4994,0 0.90625,-0.40579 0.90625,-0.90572 0,-0.49992 -0.40685,-0.90624 -0.90625,-0.90624 m 0,2.77458 c -1.03016,0 -1.86887,-0.83817 -1.86887,-1.86834 0,-1.03016 0.83871,-1.86887 1.86887,-1.86887 1.0307,0 1.86888,0.83871 1.86888,1.86887 0,1.03017 -0.83818,1.86834 -1.86888,1.86834"
         style="fill:#217777;fill-opacity:1;fill-rule:nonzero;stroke:none;stroke-opacity:1"
         inkscape:connector-curvature="0" />
      <path
         id="path32"
         d="m -168.38365,620.05189 c -0.49939,0 -0.90518,0.40632 -0.90518,0.90625 0,0.49939 0.40579,0.90572 0.90518,0.90572 0.49939,0 0.90625,-0.40633 0.90625,-0.90572 0,-0.49993 -0.40686,-0.90625 -0.90625,-0.90625 m 0,2.77459 c -1.03017,0 -1.86781,-0.83818 -1.86781,-1.86834 0,-1.03017 0.83764,-1.86887 1.86781,-1.86887 1.0307,0 1.86887,0.8387 1.86887,1.86887 0,1.03016 -0.83817,1.86834 -1.86887,1.86834"
         style="fill:#217777;fill-opacity:1;fill-rule:nonzero;stroke:none;stroke-opacity:1"
         inkscape:connector-curvature="0" />
      <path
         id="path34"
         d="m -158.57926,607.09105 c -0.49939,0 -0.90625,0.40633 -0.90625,0.90625 0,0.4994 0.40686,0.90572 0.90625,0.90572 0.4994,0 0.90519,-0.40632 0.90519,-0.90572 0,-0.49992 -0.40579,-0.90625 -0.90519,-0.90625 m 0,2.77406 c -1.0307,0 -1.86887,-0.83817 -1.86887,-1.86834 0,-1.03017 0.83817,-1.86887 1.86887,-1.86887 1.03017,0 1.86781,0.8387 1.86781,1.86887 0,1.03017 -0.83764,1.86834 -1.86781,1.86834"
         style="fill:#217777;fill-opacity:1;fill-rule:nonzero;stroke:none;stroke-opacity:1"
         inkscape:connector-curvature="0" />
      <path
         id="path36"
         d="m -161.75964,620.05189 c -0.49939,0 -0.90624,0.40686 -0.90624,0.90625 0,0.49939 0.40685,0.90572 0.90624,0.90572 0.49887,0 0.90572,-0.40633 0.90572,-0.90572 0,-0.49939 -0.40685,-0.90625 -0.90572,-0.90625 m 0,2.77459 c -1.03069,0 -1.86887,-0.83818 -1.86887,-1.86834 0,-1.03017 0.83818,-1.86887 1.86887,-1.86887 1.03017,0 1.86834,0.8387 1.86834,1.86887 0,1.03016 -0.83817,1.86834 -1.86834,1.86834"
         style="fill:#217777;fill-opacity:1;fill-rule:nonzero;stroke:none;stroke-opacity:1"
         inkscape:connector-curvature="0" />
      <path
         id="path38"
         d="m -165.06765,607.09105 c -0.4994,0 -0.90625,0.40633 -0.90625,0.90625 0,0.4994 0.40685,0.90572 0.90625,0.90572 0.49886,0 0.90571,-0.40632 0.90571,-0.90572 0,-0.49992 -0.40685,-0.90625 -0.90571,-0.90625 m 0,2.77406 c -1.0307,0 -1.86887,-0.83817 -1.86887,-1.86834 0,-1.03017 0.83817,-1.86887 1.86887,-1.86887 1.03016,0 1.86833,0.8387 1.86833,1.86887 0,1.03017 -0.83817,1.86834 -1.86833,1.86834"
         style="fill:#217777;fill-opacity:1;fill-rule:nonzero;stroke:none;stroke-opacity:1"
         inkscape:connector-curvature="0" />
      <path
         id="path40"
         d="m -167.63748,614.48357 5.13859,0 0,-2.15925 -5.13859,0 0,2.15925 z m 6.10122,0.96262 -7.06332,0 0,-4.08396 7.06332,0 0,4.08396 z"
         style="fill:#217777;fill-opacity:1;fill-rule:nonzero;stroke:none;stroke-opacity:1"
         inkscape:connector-curvature="0" />
    </g>
    <path
       style="fill:#217777;fill-opacity:1;fill-rule:nonzero;stroke:none"
       d="m 10.975193,999.81177 7.71801,-13.36347 7.71797,-13.3811 0.0885,-0.14159 0.10621,-0.1062 0.12391,-0.10621 0.12391,-0.0885 0.14163,-0.0708 0.14159,-0.0354 0.14162,-0.0354 0.15934,0 0,-0.0177 15.45371,0 15.453682,0 0.15931,0.0177 0.1593,0.0354 0.15931,0.0531 0.1415,0.0885 0.1418,0.0885 0.1062,0.12389 0.10621,0.12391 0.0706,0.14159 7.68278,13.31028 7.7356,13.3813 0.0709,0.1415 0.0531,0.14183 0.0175,0.1593 0.0178,0.1593 -0.0178,0.1415 -0.0353,0.1593 -0.0531,0.1415 -0.0531,0.1418 -7.7356,13.3635 -7.71809,13.3809 -0.0884,0.1419 -0.1062,0.1062 -0.124,0.1062 -0.124,0.088 -0.14151,0.071 -0.14151,0.035 -0.14179,0.035 -0.14151,0 0,0.018 -15.453682,0 -15.45372,0 -0.17704,-0.018 -0.1593,-0.035 -0.15931,-0.053 -0.14162,-0.088 -0.12392,-0.089 -0.12391,-0.1237 -0.1062,-0.1241 -0.0708,-0.1415 -7.68258,-13.3103 -7.7357,-13.3813 -0.0708,-0.1415 -0.0531,-0.1418 -0.0177,-0.1593 -0.0177,-0.1593 0.0177,-0.1415 0.0354,-0.1593 0.0531,-0.14153 0.0708,-0.1418 z m 9.73601,-12.19524 -7.38166,12.79717 7.38166,12.7972 7.39936,12.7971 14.78105,0 14.763362,0 7.39919,-12.7971 7.38168,-12.7972 -7.38168,-12.79717 -7.39919,-12.79701 -14.763362,0 -14.78105,0 -7.39936,12.79701 z m 1.52234,12.79717 0.0177,-1.06203 0.0885,-1.0443 0.12391,-1.0442 0.19473,-1.00891 0.23011,-0.99142 0.26554,-0.99113 0.33635,-0.95582 0.37174,-0.93803 0.40713,-0.92023 0.46026,-0.88522 0.49562,-0.86713 0.53107,-0.83212 0.58415,-0.81402 0.60188,-0.77873 0.65496,-0.74342 0.69037,-0.72591 0.70806,-0.67252 0.76119,-0.65472 0.77887,-0.61972 0.81429,-0.56631 0.83197,-0.54882 0.86739,-0.49542 0.88511,-0.4604 0.92049,-0.40702 0.9382,-0.37171 0.95588,-0.31855 0.9736,-0.28318 1.00901,-0.23012 1.0089,-0.17699 1.02673,-0.14159 1.06232,-0.0708 1.06203,-0.0354 1.06202,0.0354 1.04453,0.0708 1.02672,0.14159 1.00893,0.17699 1.00893,0.23012 0.97362,0.28318 0.95583,0.31855 0.93832,0.37171 0.92052,0.40702 0.88492,0.4604 0.86742,0.49542 0.84992,0.54882 0.796522,0.56631 0.77872,0.61972 0.76122,0.65472 0.70812,0.67252 0.69032,0.72591 0.65501,0.74342 0.60192,0.77873 0.58411,0.81402 0.53102,0.83212 0.49571,0.86713 0.46011,0.88522 0.40731,0.92023 0.37171,0.93803 0.3364,0.95582 0.26551,0.99113 0.22991,0.99142 0.1949,1.00891 0.124,1.0442 0.0884,1.0443 0.0178,1.06203 -0.0178,1.062 -0.0884,1.0443 -0.124,1.0442 -0.1949,1.0089 -0.22991,0.9914 -0.26551,0.9912 -0.3364,0.9558 -0.37171,0.938 -0.40731,0.9203 -0.46011,0.8852 -0.49571,0.8671 -0.53102,0.8321 -0.58411,0.814 -0.60192,0.7788 -0.65501,0.7434 -0.69032,0.7259 -0.70812,0.6725 -0.76122,0.6548 -0.77872,0.6197 -0.796522,0.5663 -0.84992,0.5488 -0.86742,0.4954 -0.88492,0.4604 -0.92052,0.407 -0.93832,0.3717 -0.95583,0.3187 -0.97362,0.283 -1.00893,0.2302 -1.00893,0.1771 -1.02672,0.1415 -1.04453,0.071 -1.06202,0.035 -1.06203,-0.035 -1.06232,-0.071 -1.02673,-0.1415 -1.0089,-0.1771 -1.00901,-0.2302 -0.9736,-0.283 -0.95588,-0.3187 -0.9382,-0.3717 -0.92049,-0.407 -0.88511,-0.4604 -0.86739,-0.4954 -0.83197,-0.5488 -0.81429,-0.5663 -0.77887,-0.6197 -0.76119,-0.6548 -0.70806,-0.6725 -0.69037,-0.7259 -0.65496,-0.7434 -0.60188,-0.7788 -0.58415,-0.814 -0.53107,-0.8321 -0.49562,-0.8671 -0.46027,-0.8852 -0.40713,-0.9203 -0.37173,-0.938 -0.33635,-0.9558 -0.26554,-0.9912 -0.23012,-0.9914 -0.19472,-1.0089 -0.12391,-1.0442 -0.0885,-1.0443 -0.0177,-1.062 z m 20.65807,-25.59418 -14.78105,0 -7.39936,12.79701 -7.38166,12.79717 7.38166,12.7972 7.39936,12.7971 14.78105,0 14.763362,0 7.39919,-12.7971 7.38168,-12.7972 -7.38168,-12.79717 -7.39919,-12.79701 -14.763362,0 z m 0,4.93829 -1.06203,0.0354 -1.06232,0.0708 -1.02673,0.1416 -1.0089,0.17698 -1.00901,0.23012 -0.9736,0.28319 -0.95588,0.31855 -0.9382,0.37171 -0.9205,0.40701 -0.8851,0.46041 -0.86739,0.49542 -0.83197,0.54881 -0.81429,0.56632 -0.77887,0.61971 -0.76119,0.65472 -0.70806,0.67252 -0.69037,0.72592 -0.65496,0.74341 -0.60188,0.77873 -0.58415,0.81403 -0.53107,0.83211 -0.49562,0.86713 -0.46027,0.88522 -0.40713,0.92023 -0.37173,0.93803 -0.33635,0.95582 -0.26554,0.99113 -0.23012,0.99143 -0.19472,1.0089 -0.12391,1.0442 -0.0885,1.0443 -0.0177,1.06203 0.0177,1.062 0.0885,1.0443 0.12391,1.0442 0.19472,1.0089 0.23012,0.9914 0.26554,0.9912 0.33635,0.9558 0.37173,0.938 0.40713,0.9203 0.46027,0.8852 0.49562,0.8671 0.53107,0.8321 0.58415,0.8141 0.60188,0.7787 0.65496,0.7434 0.69037,0.7259 0.70806,0.6725 0.76119,0.6548 0.77887,0.6197 0.81429,0.5663 0.83197,0.5488 0.86739,0.4954 0.8851,0.4604 0.9205,0.407 0.9382,0.3717 0.95588,0.3187 0.9736,0.283 1.00901,0.2302 1.0089,0.1771 1.02673,0.1415 1.06232,0.071 1.06203,0.035 1.06202,-0.035 1.04453,-0.071 1.02672,-0.1415 1.00893,-0.1771 1.00893,-0.2302 0.97362,-0.283 0.95583,-0.3187 0.93832,-0.3717 0.92052,-0.407 0.88492,-0.4604 0.86742,-0.4954 0.84992,-0.5488 0.796522,-0.5663 0.77872,-0.6197 0.76122,-0.6548 0.70812,-0.6725 0.69032,-0.7259 0.65501,-0.7434 0.60192,-0.7787 0.58411,-0.8141 0.53102,-0.8321 0.49571,-0.8671 0.46011,-0.8852 0.40731,-0.9203 0.37171,-0.938 0.3364,-0.9558 0.26551,-0.9912 0.22991,-0.9914 0.1949,-1.0089 0.124,-1.0442 0.0884,-1.0443 0.0178,-1.062 -0.0178,-1.06203 -0.0884,-1.0443 -0.124,-1.0442 -0.1949,-1.0089 -0.22991,-0.99142 -0.26551,-0.99113 -0.3364,-0.95582 -0.37171,-0.93803 -0.40731,-0.92023 -0.46011,-0.88522 -0.49571,-0.86713 -0.53102,-0.83212 -0.58411,-0.81402 -0.60192,-0.77873 -0.65501,-0.74342 -0.69032,-0.72591 -0.70812,-0.67252 -0.76122,-0.65472 -0.77872,-0.61972 -0.796522,-0.56631 -0.84992,-0.54882 -0.86742,-0.49542 -0.88492,-0.4604 -0.92052,-0.40702 -0.93832,-0.37171 -0.95583,-0.31855 -0.97362,-0.28318 -1.00893,-0.23012 -1.00893,-0.17699 -1.02672,-0.14159 -1.04453,-0.0708 -1.06202,-0.0354 z m 0,1.96475 0.95582,0.0353 0.95583,0.0709 0.92052,0.10621 0.93832,0.17681 0.90272,0.1949 0.88522,0.2655 0.86742,0.28302 0.84962,0.3364 0.83183,0.37171 0.79652,0.40702 0.77902,0.46041 0.76121,0.47762 0.74342,0.53101 0.69032,0.54881 0.690322,0.58412 0.63751,0.61942 0.61942,0.65501 0.58412,0.67252 0.56661,0.70812 0.51321,0.72562 0.49571,0.76122 0.44261,0.77872 0.40702,0.81403 0.37171,0.83212 0.3364,0.84962 0.30081,0.86713 0.248,0.88493 0.21241,0.90271 0.1593,0.9205 0.12401,0.9381 0.0706,0.9558 0.0178,0.95583 -0.0178,0.9558 -0.0706,0.9559 -0.12401,0.938 -0.1593,0.9205 -0.21241,0.9027 -0.248,0.885 -0.30081,0.8671 -0.3364,0.8496 -0.37171,0.8321 -0.40702,0.8141 -0.44261,0.7787 -0.49571,0.7612 -0.51321,0.7256 -0.56661,0.7081 -0.58412,0.6726 -0.61942,0.655 -0.63751,0.6194 -0.690322,0.5841 -0.69032,0.5488 -0.74342,0.531 -0.76121,0.4777 -0.77902,0.4604 -0.79652,0.407 -0.83183,0.3717 -0.84962,0.3364 -0.86742,0.283 -0.88522,0.2655 -0.90272,0.1949 -0.93832,0.1768 -0.92052,0.1062 -0.95583,0.071 -0.95582,0.035 -0.97363,-0.035 -0.95582,-0.071 -0.92053,-0.1062 -0.92055,-0.1768 -0.92049,-0.1949 -0.8851,-0.2655 -0.86739,-0.283 -0.84968,-0.3364 -0.81429,-0.3717 -0.81429,-0.407 -0.77887,-0.4604 -0.76119,-0.4777 -0.72577,-0.531 -0.70806,-0.5488 -0.69038,-0.5841 -0.63727,-0.6194 -0.61957,-0.655 -0.58414,-0.6726 -0.56647,-0.7081 -0.51336,-0.7256 -0.49565,-0.7612 -0.44252,-0.7787 -0.40716,-0.8141 -0.37174,-0.8321 -0.33632,-0.8496 -0.30093,-0.8671 -0.24782,-0.885 -0.21244,-0.9027 -0.1593,-0.9205 -0.12392,-0.938 -0.0708,-0.9559 -0.0177,-0.9558 0.0177,-0.95583 0.0708,-0.9558 0.12392,-0.9381 0.1593,-0.9205 0.21244,-0.90271 0.24782,-0.88493 0.30093,-0.86713 0.33632,-0.84962 0.37174,-0.83212 0.40716,-0.81403 0.44252,-0.77872 0.49565,-0.76122 0.51336,-0.72562 0.56647,-0.70812 0.58414,-0.67252 0.61957,-0.65501 0.63727,-0.61942 0.69038,-0.58412 0.70806,-0.54881 0.72577,-0.53101 0.76119,-0.47762 0.77887,-0.46041 0.81429,-0.40702 0.81429,-0.37171 0.84968,-0.3364 0.86739,-0.28302 0.8851,-0.2655 0.92049,-0.1949 0.92055,-0.17681 0.92053,-0.10621 0.95582,-0.0709 0.97363,-0.0353 z"
       id="path3415"
       inkscape:connector-curvature="0" />
    <path
       style="fill:#217777;fill-opacity:1;fill-rule:nonzero;stroke:none"
       d="m 49.122563,951.70333 0.74342,0 0.76122,0.0177 0.74342,0.0354 0.74371,0.0354 0.74342,0.0531 0.72562,0.0531 0.74342,0.0885 0.725922,0.0708 0.74342,0.1062 0.72591,0.1062 0.70812,0.1062 0.72562,0.1239 0.70812,0.1416 0.72562,0.1416 0.70812,0.1593 0.69031,0.177 0.70812,0.177 0.69061,0.177 0.69032,0.2124 0.69032,0.1947 0.69032,0.2301 0.67281,0.2124 0.67252,0.2478 0.67281,0.24779 0.65473,0.24779 0.67281,0.26551 0.65501,0.28322 0.63722,0.28319 0.65502,0.28318 0.63721,0.3009 0.63722,0.31861 0.63722,0.31861 0.61971,0.33629 0.63722,0.33629 0.61942,0.354 0.60191,0.354 0.61971,0.37171 0.60191,0.37171 0.60163,0.38939 0.5844,0.38939 0.58412,0.4071 0.58411,0.4071 0.56632,0.42481 0.56661,0.42479 0.56632,0.42481 0.54881,0.44249 0.54881,0.4602 0.53102,0.4425 0.53101,0.47791 0.53102,0.4602 0.5135,0.4956 0.51322,0.47791 0.51351,0.49559 0.49542,0.4956 0.49571,0.5133 0.47791,0.5133 0.47821,0.53099 0.46011,0.53101 0.46012,0.53099 0.4604,0.54869 0.44261,0.5487 0.44232,0.54872 0.4251,0.56638 0.42481,0.56641 176.062165,0 0.72563,0.0177 0.7437,0.0354 0.72563,0.0354 0.70811,0.0708 0.72592,0.0885 0.70782,0.0885 0.70813,0.12391 0.70811,0.12391 0.69032,0.15928 0.69032,0.17701 0.67281,0.17699 0.67252,0.2124 0.67282,0.21241 0.67251,0.23009 0.65502,0.24782 0.63721,0.26548 0.63752,0.28322 0.63721,0.3009 0.61942,0.30089 0.60191,0.33629 0.61971,0.33629 0.58412,0.354 0.58412,0.354 0.58411,0.38942 0.56662,0.38939 0.54851,0.40711 0.54881,0.42481 0.54881,0.42478 0.51322,0.44249 0.51351,0.4602 0.51322,0.47792 0.49571,0.47788 0.47791,0.49562 0.4604,0.49554 0.46013,0.51322 0.4426,0.53101 0.44261,0.53101 0.40702,0.54882 0.4073,0.56631 0.40701,0.56661 0.37171,0.56632 0.37172,0.58412 0.3542,0.60162 0.33611,0.60191 0.3189,0.61942 0.31861,0.61971 0.28301,0.61942 0.28331,0.63722 0.2655,0.65472 0.24801,0.65502 0.24771,0.65501 0.21241,0.67252 0.1946,0.67252 0.1949,0.69032 0.15931,0.69032 0.1593,0.69032 0.14151,0.69032 0.1062,0.70782 0.10621,0.7259 0.0887,0.7078 0.0531,0.726 0.0531,0.7256 0.0175,0.7256 0.0178,0.74343 -0.0178,0.7434 -0.0175,0.7257 -0.0531,0.7256 -0.0531,0.7259 -0.0887,0.7078 -0.10621,0.7259 -0.1062,0.7079 -0.14151,0.6903 -0.1593,0.6903 -0.15931,0.6903 -0.1949,0.6903 -0.1946,0.6726 -0.21241,0.6725 -0.24771,0.655 -0.24801,0.655 -0.2655,0.6547 -0.28331,0.6372 -0.28301,0.6195 -0.31861,0.6197 -0.3189,0.6194 -0.33611,0.6019 -0.3542,0.6016 -0.37172,0.5841 -0.37171,0.5664 -0.40701,0.5666 -0.4073,0.5663 -0.40702,0.5488 -0.44261,0.531 -0.4426,0.531 -0.46013,0.5132 -0.4604,0.4955 -0.47791,0.4957 -0.49571,0.4779 -0.51322,0.4779 -0.51351,0.4601 -0.51322,0.4426 -0.54881,0.4248 -0.54881,0.4249 -0.54851,0.407 -0.56662,0.3895 -0.58411,0.3892 -0.58412,0.3542 -0.58412,0.3539 -0.61971,0.3364 -0.60191,0.3361 -0.61942,0.3011 -0.63721,0.3008 -0.63752,0.2831 -0.63721,0.2655 -0.65502,0.248 -0.67251,0.2299 -0.67282,0.2124 -0.67252,0.2124 -0.67281,0.1771 -0.69032,0.1771 -0.69032,0.1593 -0.70811,0.1237 -0.70813,0.124 -0.70782,0.088 -0.72592,0.089 -0.70811,0.071 -0.72563,0.036 -0.7437,0.035 -0.72563,0.018 -176.062165,0 -0.42481,0.5664 -0.4251,0.5663 -0.44232,0.5488 -0.44261,0.5485 -0.4604,0.5488 -0.46012,0.531 -0.46011,0.531 -0.47821,0.5311 -0.47791,0.5132 -0.49571,0.5132 -0.49542,0.4957 -0.51351,0.4957 -0.51322,0.4779 -0.5135,0.4954 -0.53102,0.4605 -0.53101,0.4776 -0.53102,0.4426 -0.54881,0.4601 -0.54881,0.4426 -0.56632,0.4248 -0.56661,0.4248 -0.56632,0.4248 -0.58411,0.4071 -0.58412,0.407 -0.5844,0.3895 -0.60163,0.3895 -0.60191,0.3717 -0.61971,0.3717 -0.60191,0.3539 -0.61942,0.3539 -0.63722,0.3364 -0.61971,0.3364 -0.63722,0.3184 -0.63722,0.3186 -0.63721,0.3011 -0.65502,0.283 -0.63722,0.2833 -0.65501,0.2833 -0.67281,0.2655 -0.65473,0.2477 -0.67281,0.2477 -0.67252,0.248 -0.67281,0.2124 -0.69032,0.2299 -0.69032,0.1949 -0.69032,0.2124 -0.69061,0.1769 -0.70812,0.1771 -0.69031,0.1768 -0.70812,0.1593 -0.72562,0.1418 -0.70812,0.1415 -0.72562,0.124 -0.70812,0.1062 -0.72591,0.1062 -0.74342,0.1062 -0.725922,0.071 -0.74342,0.089 -0.72562,0.053 -0.74342,0.053 -0.74371,0.035 -0.74342,0.035 -0.76122,0.018 -0.74342,0 -0.74342,0 -0.72591,-0.018 -0.72562,-0.035 -0.70812,-0.035 -0.72562,-0.036 -0.70812,-0.071 -0.72591,-0.071 -0.70812,-0.071 -0.70812,-0.088 -0.69031,-0.1062 -0.70812,-0.1062 -0.69032,-0.1062 -0.69032,-0.1415 -0.69032,-0.1418 -0.6904,-0.1415 -0.69038,-0.1593 -0.67267,-0.1594 -0.67266,-0.1771 -0.67267,-0.1946 -0.67267,-0.1946 -0.67266,-0.1946 -0.65496,-0.2124 -0.65499,-0.2302 -0.65495,-0.2302 -0.63728,-0.2477 -0.63724,-0.2477 -0.65499,-0.248 -0.61957,-0.2655 -0.63724,-0.283 -0.61957,-0.2833 -0.61956,-0.3008 -0.61957,-0.3012 -0.63727,-0.3183 -0.61957,-0.3186 -0.61956,-0.3542 -0.61957,-0.3361 -0.61956,-0.3542 -0.60186,-0.3717 -0.60185,-0.3717 -0.58418,-0.3892 -0.60185,-0.3895 -0.58415,-0.3895 -0.56646,-0.4071 -0.56647,-0.4248 -0.56646,-0.4248 -0.56644,-0.4248 -0.54878,-0.4423 -0.53104,-0.4426 -0.54876,-0.4601 -0.53104,-0.4604 -0.51336,-0.4602 -0.53104,-0.4779 -0.49566,-0.4954 -0.51336,-0.4779 -0.49565,-0.4957 -0.49565,-0.5132 -0.47795,-0.5135 -0.47794,-0.5133 -0.46026,-0.531 -0.46025,-0.531 -0.46024,-0.5485 -0.44255,-0.5488 -0.42484,-0.5488 -0.42484,-0.5486 -0.0708,-0.1062 -0.0531,-0.1062 -0.0531,-0.1062 -0.0354,-0.1062 -0.0177,-0.1062 -0.0177,-0.124 0,-0.1062 0.0177,-0.1062 0.0177,-0.1237 0.0354,-0.1062 0.0354,-0.1062 0.0531,-0.1062 0.0708,-0.089 0.0708,-0.088 0.0708,-0.088 0.0885,-0.071 0.17701,-0.1062 0.17702,-0.071 0.17702,-0.053 0.17702,-0.017 0,0 15.20586,0 16.53354,0 15.843192,0 7.91269,-13.7177 7.93021,-13.7174 -7.93021,-13.7174 -7.91269,-13.71759 -15.843192,0 -16.53354,0 -15.20586,0 -0.10621,-0.0177 -0.12391,-0.0177 -0.10621,-0.0177 -0.10622,-0.0354 -0.10621,-0.0531 -0.10621,-0.0708 -0.0885,-0.0531 -0.0885,-0.0885 -0.0708,-0.0708 -0.0708,-0.10621 -0.0531,-0.0885 -0.0531,-0.1062 -0.0354,-0.1062 -0.0354,-0.10618 -0.0177,-0.12391 0,-0.12391 0,-0.10618 0.0177,-0.1062 0.0177,-0.1062 0.0354,-0.0885 0.0885,-0.17699 0.12391,-0.17701 0.42484,-0.5487 0.44255,-0.54869 0.44254,-0.5487 0.44255,-0.53098 0.46025,-0.53102 0.47795,-0.53098 0.46024,-0.51331 0.47794,-0.5133 0.49565,-0.51331 0.49565,-0.49559 0.49565,-0.47791 0.51337,-0.47789 0.51336,-0.47791 0.53104,-0.47788 0.53105,-0.46021 0.53107,-0.44249 0.54875,-0.44252 0.54876,-0.44249 0.54875,-0.42481 0.56646,-0.42479 0.56647,-0.42481 0.56643,-0.38939 0.58418,-0.4071 0.58414,-0.38939 0.60189,-0.37171 0.60185,-0.37171 0.60186,-0.37168 0.60185,-0.354 0.61957,-0.354 0.61956,-0.33629 0.61957,-0.31861 0.63727,-0.31861 0.61957,-0.3009 0.61956,-0.3009 0.61957,-0.28318 0.63724,-0.28322 0.61957,-0.26551 0.65499,-0.24779 0.63724,-0.2478 0.63728,-0.2478 0.65495,-0.23009 0.65499,-0.2301 0.65496,-0.2124 0.67266,-0.1947 0.67267,-0.1947 0.67267,-0.1947 0.67266,-0.177 0.67267,-0.1593 0.69038,-0.1593 0.6904,-0.1416 0.69032,-0.1416 0.69032,-0.1416 0.69032,-0.1062 0.70812,-0.1062 0.69031,-0.1062 0.70812,-0.0885 0.70812,-0.0708 0.72591,-0.0708 0.70812,-0.0708 0.72562,-0.0354 0.70812,-0.0354 0.72562,-0.0354 0.72591,-0.0177 0.74342,0 z m 21.259832,7.50478 -0.60191,-0.3009 -0.60162,-0.3009 -0.61971,-0.28319 -0.60192,-0.28318 -0.61942,-0.26551 -0.61971,-0.26551 -0.63722,-0.2478 -0.63721,-0.24779 -0.63722,-0.23012 -0.63722,-0.23009 -0.63722,-0.2124 -0.65501,-0.21241 -0.65502,-0.19469 -0.65501,-0.1947 -0.67252,-0.17698 -0.65502,-0.15931 -0.67281,-0.1593 -0.67252,-0.15931 -0.67281,-0.14159 -0.69032,-0.12391 -0.67281,-0.12389 -0.69032,-0.1062 -0.69032,-0.1062 -0.708122,-0.0885 -0.69032,-0.0708 -0.69031,-0.0708 -0.70812,-0.0708 -0.70812,-0.0354 -0.70811,-0.0354 -0.70783,-0.0354 -0.72591,-0.0177 -0.70812,0 -0.70811,0 -0.69032,0.0177 -0.69032,0.0177 -0.67281,0.0354 -0.69032,0.0531 -0.69032,0.0531 -0.67252,0.0708 -0.67281,0.0708 -0.67253,0.0885 -0.67281,0.0885 -0.67252,0.10621 -0.65501,0.10618 -0.65502,0.12391 -0.65501,0.14159 -0.65496,0.1416 -0.65499,0.14162 -0.65495,0.15928 -0.63728,0.1593 -0.63724,0.17701 -0.63728,0.1947 -0.63728,0.1947 -0.61953,0.19469 -0.61957,0.21241 -0.61956,0.23008 -0.61957,0.23012 -0.61956,0.23009 -0.60186,0.24779 -0.60188,0.2478 -0.60186,0.26551 -0.58414,0.2655 -0.60189,0.28319 -0.58414,0.28322 -1.06212,0.5487 -1.0444,0.58408 -1.04441,0.6018 -1.00901,0.61951 -1.00899,0.65489 -0.97359,0.69032 -0.97363,0.69029 -0.93817,0.72571 -0.92049,0.76107 -0.90282,0.7611 -0.88507,0.79653 -0.86739,0.8142 -0.84968,0.84959 -0.81429,0.8496 -0.79658,0.88498 -0.7789,0.90273 12.76302,0 16.53354,0 16.515712,0 0,0 0.1415,0.0177 0.1596,0.0177 0.14151,0.0531 0.1415,0.0708 0.124,0.0708 0.10621,0.1062 0.1062,0.12389 0.0884,0.12391 8.2669,14.30156 8.2491,14.30148 0.0706,0.1418 0.0531,0.14153 0.0356,0.1593 0.0175,0.1415 -0.0175,0.1593 -0.0356,0.1593 -0.0353,0.1418 -0.0709,0.1415 -8.26661,14.3193 -8.2138,14.231 -0.0884,0.1415 -0.10621,0.124 -0.1062,0.1062 -0.124,0.1059 -0.14151,0.071 -0.1593,0.053 -0.1593,0.035 -0.17711,0.018 -16.515712,0 -16.53354,0 -12.76301,0 0.77889,0.9027 0.79658,0.8849 0.81429,0.8497 0.84969,0.8496 0.86739,0.8143 0.88507,0.7965 0.90281,0.7609 0.92049,0.7613 0.93818,0.7256 0.97362,0.6903 0.9736,0.6903 1.00898,0.655 1.00902,0.6195 1.0444,0.6016 1.04441,0.5841 1.06211,0.5488 0.58415,0.2833 0.60188,0.283 0.58415,0.2655 0.60185,0.2655 0.60189,0.248 0.60185,0.2478 0.61957,0.2302 0.61956,0.2299 0.61957,0.2302 0.61956,0.2124 0.61954,0.1946 0.63728,0.1946 0.63727,0.1949 0.63725,0.1768 0.63727,0.1593 0.65496,0.1593 0.65499,0.1418 0.65495,0.1415 0.65502,0.1415 0.65501,0.124 0.65502,0.1062 0.67252,0.1062 0.67281,0.088 0.67252,0.089 0.67281,0.071 0.67252,0.071 0.69032,0.053 0.69032,0.053 0.67281,0.035 0.69032,0.018 0.69032,0.018 0.70812,0 0.70811,0 0.72592,-0.018 0.70782,-0.035 0.70812,-0.036 0.70812,-0.035 0.70811,-0.071 0.69032,-0.071 0.69032,-0.071 0.708122,-0.088 0.69031,-0.1062 0.69032,-0.1062 0.67282,-0.124 0.69031,-0.124 0.67282,-0.1415 0.67252,-0.1593 0.67281,-0.1593 0.65502,-0.1593 0.67252,-0.1771 0.65501,-0.1946 0.65502,-0.1946 0.65501,-0.2124 0.63722,-0.2124 0.63721,-0.2302 0.63722,-0.2299 0.63722,-0.248 0.63722,-0.2478 0.61971,-0.2655 0.61942,-0.2655 0.60191,-0.2833 0.61971,-0.283 0.60162,-0.3011 0.60192,-0.3008 0.61971,-0.3186 0.60191,-0.3364 0.60162,-0.3361 0.60192,-0.3539 0.58411,-0.3542 0.58441,-0.3718 0.58412,-0.3717 0.58411,-0.3892 0.56632,-0.3895 0.56661,-0.407 0.54881,-0.4073 0.54852,-0.4248 0.54881,-0.4245 0.53102,-0.4249 0.5313,-0.4426 0.53102,-0.4426 0.51321,-0.4601 0.51351,-0.4601 0.49542,-0.4779 0.49571,-0.4779 0.49571,-0.4779 0.47792,-0.4957 0.47791,-0.4955 0.46041,-0.5135 0.46011,-0.5132 0.46041,-0.5132 0.44231,-0.531 0.42482,-0.531 0.4251,-0.5489 0.42481,-0.5485 0.42481,-0.5488 0.38951,-0.5488 0.0884,-0.1237 0.10621,-0.1062 0.1062,-0.1062 0.124,-0.089 0.14151,-0.053 0.1415,-0.053 0.1418,-0.035 0.1593,0 0.0531,0 176.610975,0 0.67253,-0.018 0.67281,-0.017 0.65501,-0.053 0.67252,-0.053 0.65502,-0.071 0.65502,-0.1062 0.65501,-0.1062 0.63722,-0.1238 0.63721,-0.1418 0.63722,-0.1415 0.61971,-0.1771 0.61943,-0.1768 0.61971,-0.2124 0.60191,-0.2124 0.60162,-0.2302 0.5844,-0.2477 0.58412,-0.248 0.58412,-0.2655 0.56631,-0.283 0.56661,-0.3011 0.54882,-0.3186 0.54852,-0.3183 0.54881,-0.3364 0.53101,-0.354 0.51351,-0.3542 0.51322,-0.3717 0.49571,-0.3892 0.49571,-0.4073 0.47791,-0.407 0.47791,-0.407 0.46041,-0.4426 0.46011,-0.4424 0.44262,-0.4426 0.42481,-0.4601 0.42481,-0.4779 0.40702,-0.4779 0.3895,-0.4957 0.38951,-0.5132 0.37171,-0.4957 0.37171,-0.5311 0.3364,-0.531 0.33641,-0.531 0.33612,-0.5485 0.3011,-0.5488 0.30081,-0.5663 0.2833,-0.5664 0.26551,-0.5841 0.2655,-0.5841 0.24801,-0.6019 0.22991,-0.6019 0.21241,-0.6016 0.1949,-0.6194 0.19461,-0.6198 0.1593,-0.6194 0.1593,-0.6372 0.1418,-0.6372 0.12371,-0.6372 0.10621,-0.6548 0.0887,-0.6372 0.0706,-0.6728 0.0709,-0.6547 0.0354,-0.6725 0.0356,-0.6728 0,-0.6726 0,-0.67253 -0.0356,-0.6728 -0.0354,-0.6725 -0.0709,-0.6547 -0.0706,-0.6729 -0.0887,-0.63716 -0.10621,-0.65473 -0.12371,-0.63721 -0.1418,-0.63722 -0.1593,-0.63722 -0.1593,-0.61942 -0.19461,-0.61971 -0.1949,-0.61942 -0.21241,-0.60162 -0.22991,-0.60191 -0.24801,-0.60192 -0.2655,-0.58411 -0.26551,-0.58412 -0.2833,-0.56632 -0.30081,-0.56632 -0.3011,-0.54881 -0.33612,-0.54852 -0.33641,-0.53101 -0.3364,-0.53102 -0.37171,-0.53101 -0.37171,-0.49571 -0.38951,-0.51322 -0.3895,-0.49571 -0.40702,-0.47791 -0.42481,-0.47791 -0.42481,-0.46012 -0.44262,-0.44261 -0.46011,-0.44232 -0.46041,-0.44261 -0.47791,-0.40704 -0.47791,-0.4071 -0.49571,-0.4071 -0.49571,-0.38939 -0.51322,-0.37171 -0.51351,-0.354 -0.53101,-0.354 -0.54881,-0.33629 -0.54852,-0.31861 -0.54882,-0.31861 -0.56661,-0.3009 -0.56631,-0.28318 -0.58412,-0.26551 -0.58412,-0.2478 -0.5844,-0.2478 -0.60162,-0.23008 -0.60191,-0.21241 -0.61971,-0.2124 -0.61943,-0.17699 -0.61971,-0.17701 -0.63722,-0.1416 -0.63721,-0.14159 -0.63722,-0.12392 -0.65501,-0.1062 -0.65502,-0.1062 -0.65502,-0.0708 -0.67252,-0.0531 -0.65501,-0.0531 -0.67281,-0.0177 -0.67253,-0.0177 -176.664075,0 0,0 -0.124,0 -0.14151,-0.0354 -0.14179,-0.0354 -0.12371,-0.0531 -0.10621,-0.0708 -0.124,-0.0885 -0.1062,-0.0885 -0.0884,-0.12391 -0.40731,-0.5487 -0.40701,-0.5664 -0.42481,-0.5487 -0.42511,-0.54869 -0.44231,-0.53099 -0.44261,-0.53101 -0.44261,-0.51331 -0.47791,-0.53098 -0.46012,-0.49559 -0.4782,-0.51331 -0.47792,-0.49559 -0.49542,-0.47792 -0.49571,-0.47788 -0.49571,-0.47791 -0.51351,-0.46021 -0.531,-0.46018 -0.51322,-0.4602 -0.53101,-0.44249 -0.54881,-0.42482 -0.53102,-0.42478 -0.56661,-0.42481 -0.54852,-0.4071 -0.56661,-0.4071 -0.56632,-0.38939 -0.5844,-0.38939 -0.58412,-0.37171 -0.58412,-0.37171 -0.60191,-0.37168 -0.58412,-0.33629 -0.61941,-0.354 -0.60192,-0.33632 -0.61971,-0.31861 z"
       id="path3417"
       inkscape:connector-curvature="0" />
    <path
       style="fill:#217777;fill-opacity:1;fill-rule:evenodd;stroke:none"
       d="m 34.854943,985.24476 0,0.14151 0,0.37171 0,0.53101 0,0.61971 0,0.61942 0,0.53102 0,0.37171 0,0.1415 -0.42484,0.14151 -0.38945,0.1418 -0.33632,0.14151 -0.26554,0.124 -0.19472,0.1415 -0.1416,0.10621 -0.0531,0.0709 -0.0177,0.0531 0,0.0531 0,0.0353 0.1593,-0.0353 0.19473,-0.0356 0.19472,-0.0353 0.23012,-0.0178 0.49565,-0.0175 0.54875,0.0353 0,0.19461 0,0.54881 0,0.84962 0,1.11513 0,1.30974 0,1.45154 0,1.57524 0,1.6105 0,1.6284 0,1.55773 0,1.4691 0,1.3097 0,1.1151 0,0.8497 0,0.5488 0,0.1946 -0.1593,0.3539 -0.14162,0.3542 -0.10621,0.3539 -0.0885,0.3717 -0.0708,0.3717 -0.0531,0.3895 -0.0354,0.3715 0,0.3895 0,0.3895 0.0177,0.3717 0.0354,0.3892 0.0354,0.3717 0.0531,0.3717 0.0708,0.3717 0.0708,0.3542 0.0708,0.3539 0.17701,0.6726 0.17702,0.6019 0.19472,0.5485 0.17701,0.4779 0.26554,0.6728 0.12391,0.2477 -0.0885,-0.2477 -0.15931,-0.7081 -0.0885,-0.4957 -0.0708,-0.5663 -0.0177,-0.3008 -0.0177,-0.3186 -0.0177,-0.3186 0.0177,-0.3365 0.0177,-0.3539 0.0177,-0.3539 0.0531,-0.3542 0.0708,-0.3717 0.0885,-0.3539 0.1062,-0.3717 0.12392,-0.3539 0.14162,-0.3542 0.17702,-0.3539 0.21243,-0.354 0.23012,-0.3364 0.26553,-0.3186 0.28322,-0.3186 0.33635,-0.3008 0.35403,-0.2833 0.40713,-0.283 0.40716,-0.2302 0.46023,-0.2124 0.51336,-0.1946 0.56632,-0.1771 0.60191,-0.1593 0.63722,-0.1593 0.67281,-0.1415 0.69032,-0.1418 1.45154,-0.2831 1.52243,-0.2833 0.76122,-0.1415 0.77872,-0.1593 0.76122,-0.1771 0.76122,-0.1768 0.74342,-0.1949 0.74342,-0.2124 0.70812,-0.2477 0.67281,-0.2477 0.65501,-0.2833 0.61942,-0.3186 0.58412,-0.3364 0.54881,-0.3717 0.47791,-0.407 0.44261,-0.4602 0.389512,-0.4779 0.31861,-0.531 0.26551,-0.56633 0.1771,-0.6197 0.12371,-0.6725 0.0356,-0.7079 -0.0531,-1.0267 -0.1062,-0.95581 -0.1949,-0.88493 -0.24771,-0.84962 -0.3011,-0.76122 -0.371712,-0.72562 -0.42481,-0.65501 -0.47791,-0.61942 -0.51322,-0.54852 -0.56661,-0.51351 -0.60191,-0.46012 -0.63722,-0.40701 -0.67252,-0.37171 -0.70812,-0.31861 -0.72591,-0.3011 -0.76122,-0.24771 -0.76093,-0.19461 -0.79681,-0.1771 -0.79652,-0.14151 -0.79652,-0.124 -0.81432,-0.0706 -0.81432,-0.0531 -0.81432,-0.0356 -0.79652,0 -0.79652,0.0178 -0.77902,0.0353 -0.76122,0.0531 -0.74342,0.0887 -0.72568,0.0884 -0.69037,0.0884 -0.65499,0.124 -0.63725,0.124 0,-0.124 0,-0.33641 0,-0.46011 0,-0.53102 0,-0.53101 0,-0.46012 0,-0.3186 0,-0.124 -0.28324,0 -0.61957,0 -0.61956,0 -0.28322,0 z m 1.80559,4.49583 0.30093,0.0884 0.31864,0.0887 0.30092,0.0884 0.31864,0.124 0.30093,0.1062 0.31864,0.14151 0.30093,0.14151 0.30092,0.1593 0.30084,0.1771 0.28331,0.1771 0.2833,0.19461 0.26551,0.21241 0.26551,0.2302 0.2655,0.22991 0.24771,0.26551 0.23021,0.26551 0.2124,0.2833 0.21241,0.30081 0.1771,0.31861 0.1771,0.31861 0.15931,0.35391 0.1415,0.37171 0.10621,0.37171 0.1062,0.40731 0.0709,0.40701 0.0531,0.44232 0.0353,0.46041 0,0.4779 -0.0178,0.4779 -0.0531,0.5132 -0.0706,0.531 -0.1062,0.5664 -0.0709,0.2655 -0.0709,0.2655 -0.1062,0.2655 -0.10621,0.24773 -0.1237,0.248 -0.124,0.2477 -0.15931,0.2302 -0.14151,0.2124 -0.15959,0.2299 -0.17681,0.1949 -0.1771,0.2124 -0.19461,0.1946 -0.38951,0.3893 -0.42481,0.3542 -0.42481,0.3361 -0.44261,0.3186 -0.44258,0.3011 -0.44255,0.283 -0.84968,0.5488 -0.77887,0.4957 0,-0.1771 0,-0.4779 0,-0.7434 0,-0.9736 0,-1.1327 0,-1.2922 0,-1.36283 0,-1.3982 0,-1.41621 0,-1.36284 0,-1.29194 0,-1.13293 0,-0.97333 0,-0.74342 0,-0.47791 0,-0.17711 0,0 z"
       id="path3419"
       inkscape:connector-curvature="0" />
    <g
       id="g3581"
       transform="translate(458.17838,469.67875)">
      <path
         id="path10-0"
         d="m -340.10483,538.37204 c -0.3441,0.8871 -0.77808,1.41628 -1.1594,1.41628 -3.06125,0 -10.61119,0.01 -13.60383,0.0133 l 0,-11.67805 13.60383,5.1e-4 c 0.77222,0 1.84919,2.21882 1.84919,5.83212 0,1.679 -0.25209,3.28887 -0.68979,4.41583 m 2.32944,-9.73738 c -1.01847,-2.61876 -2.62248,-3.01019 -3.48884,-3.01019 l -13.60383,-10e-4 0,-5.44865 -2.49963,0 0,22.12968 1.25194,-0.002 c 0,0 10.99198,-0.0154 14.85152,-0.0154 0.86636,0 2.47037,-0.39036 3.48884,-3.00912 0.5547,-1.42586 0.85945,-3.31547 0.85945,-5.32208 0,-2.00609 -0.30475,-3.89623 -0.85945,-5.32155"
         style="fill:#217777;fill-opacity:1;fill-rule:nonzero;stroke:none;stroke-opacity:1"
         inkscape:connector-curvature="0" />
      <path
         id="path12-5"
         d="m -264.48933,538.41939 c -0.3441,0.8871 -0.77808,1.41628 -1.15834,1.41628 -3.06231,0 -10.61172,0.01 -13.60489,0.0133 l 0,-11.67805 13.60489,5.1e-4 c 0.77169,0 1.84866,2.21882 1.84866,5.83212 0,1.679 -0.25209,3.28887 -0.69032,4.41583 m 2.32997,-9.73738 c -1.01847,-2.61876 -2.62301,-3.01019 -3.48831,-3.01019 l -13.60489,-0.001 0,-5.44865 -2.4991,0 0,22.12968 1.25141,-0.002 c 0,0 10.99252,-0.0154 14.85258,-0.0154 0.8653,0 2.46984,-0.39036 3.48831,-3.00912 0.5547,-1.42586 0.85945,-3.31547 0.85945,-5.32208 0,-2.00609 -0.30475,-3.89623 -0.85945,-5.32155"
         style="fill:#217777;fill-opacity:1;fill-rule:nonzero;stroke:none;stroke-opacity:1"
         inkscape:connector-curvature="0" />
      <path
         sodipodi:nodetypes="cssscccccssssccc"
         id="path14-4"
         d="m -253.62176,528.34182 c -0.38132,0 -0.81424,0.52918 -1.1594,1.41628 -0.43823,1.12696 -0.68979,2.7363 -0.68979,4.41583 0,3.6133 1.07697,5.83212 1.84919,5.83212 3.06178,0 10.61119,0.01 13.60436,0.0133 l 0,-11.67752 -13.60436,0 z m 16.10346,14.18034 -1.25088,-0.002 c 0,0 -10.99251,-0.0149 -14.85258,-0.0149 -0.86583,0 -2.47037,-0.3909 -3.48884,-3.00966 -0.55417,-1.42585 -0.85945,-3.31546 -0.85945,-5.32208 0,-2.00608 0.30528,-3.89623 0.85945,-5.32155 1.01847,-2.61875 2.62301,-3.01019 3.48884,-3.01019 l 14.85417,0 1.24228,0.002 0.007,16.67752 z"
         style="fill:#217777;fill-opacity:1;fill-rule:nonzero;stroke:none;stroke-opacity:1"
         inkscape:connector-curvature="0" />
      <path
         id="path18-7"
         d="m -317.75178,527.79383 c -0.42866,-0.62597 -1.17748,-1.2679 -2.46399,-1.76836 -1.42532,-0.55417 -3.316,-0.85944 -5.32208,-0.85944 -2.00609,0 -3.89676,0.30527 -5.32155,0.85944 -2.61876,1.01847 -3.00966,2.62248 -3.00966,3.48831 0,4.2031 -0.007,12.7848 -0.007,12.7848 l 2.49909,0.002 c 0,0 0.007,-8.5833 0.007,-12.78693 0,-0.77169 2.21829,-1.84866 5.83211,-1.84866 1.67954,0 3.28887,0.25103 4.41583,0.68979 0.67596,0.26273 1.14345,0.57651 1.32853,0.87966 l 2.04171,-1.44074 z"
         style="fill:#217777;fill-opacity:1;fill-rule:nonzero;stroke:none;stroke-opacity:1"
         inkscape:connector-curvature="0" />
      <path
         id="path20-9"
         d="m -299.2173,529.51697 c 0,-0.77222 2.22945,-1.84866 5.84328,-1.84866 1.68006,0 3.28887,0.25103 4.41583,0.68926 0.8871,0.34516 1.41628,0.77861 1.41628,1.1594 0,3.86007 0.008,12.78693 0.008,12.78693 l 2.49854,-0.002 c 0,-5.1e-4 -0.007,-8.92579 -0.007,-12.78533 0,-0.86583 -0.39037,-2.46984 -3.00913,-3.48884 -1.42585,-0.55417 -3.31546,-0.85891 -5.32208,-0.85891 -2.00661,0 -3.89676,0.30474 -5.32208,0.85891 -0.76478,0.29783 -1.34607,0.64086 -1.77633,1.00517 -0.42972,-0.36058 -1.0073,-0.71 -1.76569,-1.00517 -1.42479,-0.55417 -3.31493,-0.85891 -5.32208,-0.85891 -2.00609,0 -3.8957,0.30474 -5.32102,0.85891 -2.61929,1.019 -3.01018,2.62301 -3.01018,3.48884 0,4.20257 -0.007,12.7848 -0.007,12.7848 l 2.49909,0.002 c 0,0 0.007,-8.5833 0.007,-12.78693 0,-0.77222 2.21882,-1.84866 5.83158,-1.84866 1.68007,0 3.2894,0.25103 4.41636,0.68926 0.88657,0.34516 1.41628,0.77861 1.41628,1.1594 0,3.86007 0.007,12.78853 0.007,12.78853 l 2.4991,-0.002 c 0,0 0.004,-8.92686 0.004,-12.7864"
         style="fill:#217777;fill-opacity:1;fill-rule:nonzero;stroke:none;stroke-opacity:1"
         inkscape:connector-curvature="0" />
      <path
         id="path18-7-2"
         d="m -217.38429,527.94058 c -0.42866,-0.62597 -1.17748,-1.2679 -2.46399,-1.76836 -1.42532,-0.55417 -3.316,-0.85944 -5.32208,-0.85944 -2.00609,0 -3.89676,0.30527 -5.32155,0.85944 -2.61876,1.01847 -3.00966,2.62248 -3.00966,3.48831 0,4.2031 -0.007,12.7848 -0.007,12.7848 l 2.49909,0.002 c 0,0 0.007,-8.5833 0.007,-12.78693 0,-0.77169 2.21829,-1.84866 5.83211,-1.84866 1.67954,0 3.28887,0.25103 4.41583,0.68979 0.67596,0.26273 1.14345,0.57651 1.32853,0.87966 l 2.04171,-1.44074 z"
         style="fill:#217777;fill-opacity:1;fill-rule:nonzero;stroke:none;stroke-opacity:1"
         inkscape:connector-curvature="0" />
    </g>
  </g>
</svg>
